<svg width="12" height="12" viewBox="0 0 12 12" fill="none" xmlns="http://www.w3.org/2000/svg">
<g clip-path="url(#clip0_5_63)">
<path fill-rule="evenodd" clip-rule="evenodd" d="M11.4522 2.66859C11.4564 2.68431 11.4586 2.70053 11.4586 2.71682V5.24882C11.4586 5.28131 11.45 5.31324 11.4338 5.34136C11.4175 5.36948 11.394 5.3928 11.3658 5.40897L9.24069 6.63251V9.05766C9.24069 9.12366 9.20562 9.18459 9.14839 9.21782L4.71231 11.7715C4.70215 11.7773 4.69108 11.781 4.68 11.7849C4.67585 11.7863 4.67192 11.7888 4.66754 11.79C4.63653 11.7981 4.60393 11.7981 4.57292 11.79C4.56785 11.7886 4.56323 11.7858 4.55838 11.784C4.54823 11.7803 4.53762 11.777 4.52792 11.7715L0.0927692 9.21782C0.064594 9.20163 0.0411832 9.1783 0.0248964 9.15019C0.00860963 9.12207 2.23245e-05 9.09016 0 9.05766L0 1.46166C0 1.44505 0.00230769 1.42889 0.00646154 1.4132C0.00784615 1.40789 0.0110769 1.40305 0.0129231 1.39774C0.0163846 1.38805 0.0196154 1.37812 0.0246923 1.36912C0.0281538 1.36312 0.0332308 1.35828 0.0373846 1.35274C0.0426923 1.34536 0.0475385 1.33774 0.0537692 1.33128C0.0590769 1.32597 0.066 1.32205 0.072 1.31743C0.0786923 1.31189 0.0846923 1.30589 0.0923077 1.30151L2.31023 0.0246626C2.33831 0.00850426 2.37014 0 2.40254 0C2.43494 0 2.46677 0.00850426 2.49485 0.0246626L4.71254 1.30151H4.713C4.72038 1.30612 4.72662 1.31189 4.73331 1.3172C4.73931 1.32182 4.746 1.32597 4.75131 1.33105C4.75777 1.33774 4.76238 1.34536 4.76792 1.35274C4.77185 1.35828 4.77715 1.36312 4.78038 1.36912C4.78569 1.37836 4.78869 1.38805 4.79238 1.39774C4.79423 1.40305 4.79746 1.40789 4.79885 1.41343C4.80309 1.42916 4.80527 1.44537 4.80531 1.46166V6.20605L6.65331 5.14197V2.71659C6.65331 2.70043 6.65562 2.68405 6.65977 2.66859C6.66138 2.66305 6.66438 2.6582 6.66623 2.65289C6.66992 2.6432 6.67315 2.63328 6.67823 2.62428C6.68169 2.61828 6.68677 2.61343 6.69069 2.60789C6.69623 2.60051 6.70085 2.59289 6.70731 2.58643C6.71262 2.58112 6.71931 2.5772 6.72531 2.57259C6.73223 2.56705 6.73823 2.56105 6.74562 2.55666L8.96377 1.27982C8.99184 1.26364 9.02367 1.25512 9.05608 1.25512C9.08848 1.25512 9.12031 1.26364 9.14839 1.27982L11.3661 2.55666C11.3739 2.56128 11.3799 2.56705 11.3868 2.57236C11.3926 2.57697 11.3993 2.58112 11.4046 2.5862C11.4111 2.59289 11.4157 2.60051 11.4212 2.60789C11.4254 2.61343 11.4305 2.61828 11.4337 2.62428C11.439 2.63328 11.442 2.6432 11.4457 2.65289C11.4478 2.6582 11.4508 2.66305 11.4522 2.66859ZM11.0889 5.14197V3.03643L10.3128 3.4832L9.24069 4.10051V6.20605L11.0892 5.14197H11.0889ZM8.87123 8.95082V6.84389L7.81662 7.4462L4.80508 9.16497V11.2917L8.87123 8.95082ZM0.369692 1.78128V8.95082L4.43538 11.2915V9.1652L2.31138 7.96312L2.31069 7.96266L2.30977 7.9622C2.30262 7.95805 2.29662 7.95205 2.28992 7.94697C2.28415 7.94236 2.27746 7.93866 2.27238 7.93359L2.27192 7.93289C2.26592 7.92712 2.26177 7.91997 2.25669 7.91351C2.25208 7.90728 2.24654 7.90197 2.24285 7.89551L2.24262 7.89482C2.23846 7.88789 2.23592 7.87959 2.23292 7.87174C2.22992 7.86482 2.226 7.85836 2.22415 7.85097C2.22185 7.8422 2.22138 7.83274 2.22046 7.82374C2.21954 7.81682 2.21769 7.80989 2.21769 7.80297V7.80251V2.84536L1.14577 2.22782L0.369692 1.78128ZM2.40277 0.398047L0.555 1.46166L2.40231 2.52528L4.24985 1.46143L2.40231 0.398047H2.40277ZM3.36369 7.03589L4.43562 6.41882V1.78128L3.65954 2.22805L2.58738 2.84536V7.48289L3.36369 7.03589ZM9.05608 1.6532L7.20854 2.71682L9.05608 3.78043L10.9034 2.71659L9.05608 1.6532ZM8.87123 4.10051L7.79908 3.4832L7.023 3.03643V5.14197L8.09492 5.75905L8.87123 6.20605V4.10051ZM4.62 8.84536L7.32992 7.29828L8.68454 6.5252L6.83838 5.46228L4.71277 6.68605L2.77546 7.80136L4.62 8.84536Z" fill="#FF2D20"/>
</g>
<defs>
<clipPath id="clip0_5_63">
<rect width="12" height="12" fill="white"/>
</clipPath>
</defs>
</svg>
