<svg xmlns="http://www.w3.org/2000/svg" xmlns:xlink="http://www.w3.org/1999/xlink" viewBox="0 0 620.13 203.99"><defs><style>.cls-1{fill:url(#New_Gradient_Swatch_9);}.cls-2{fill:url(#New_Gradient_Swatch_8);}.cls-3{fill:url(#New_Gradient_Swatch_7);}.cls-4{fill:url(#linear-gradient);}.cls-5{fill:url(#linear-gradient-2);}.cls-6{fill:url(#linear-gradient-3);}.cls-7{fill:url(#linear-gradient-4);}.cls-8{fill:url(#linear-gradient-5);}</style><linearGradient id="New_Gradient_Swatch_9" x1="87.15" y1="23.21" x2="87.15" y2="176.39" gradientUnits="userSpaceOnUse"><stop offset="0.03" stop-color="#f15825"/><stop offset="0.3" stop-color="#ee5426"/><stop offset="0.54" stop-color="#e44927"/><stop offset="0.78" stop-color="#d3372a"/><stop offset="0.98" stop-color="#be202e"/></linearGradient><linearGradient id="New_Gradient_Swatch_8" x1="87.15" y1="-7.99" x2="87.15" y2="187.32" gradientUnits="userSpaceOnUse"><stop offset="0" stop-color="#ffd179"/><stop offset="0.18" stop-color="#fecc72"/><stop offset="0.44" stop-color="#fcbe5f"/><stop offset="0.75" stop-color="#f9a83f"/><stop offset="1" stop-color="#f69321"/></linearGradient><linearGradient id="New_Gradient_Swatch_7" x1="87.15" y1="17" x2="87.15" y2="188.5" gradientUnits="userSpaceOnUse"><stop offset="0" stop-color="#79b6e4"/><stop offset="1" stop-color="#2d4e98"/></linearGradient><linearGradient id="linear-gradient" x1="238.79" y1="40.96" x2="238.79" y2="187.38" gradientUnits="userSpaceOnUse"><stop offset="0" stop-color="#79b6e4"/><stop offset="0.16" stop-color="#72adde"/><stop offset="0.43" stop-color="#5f95cd"/><stop offset="0.77" stop-color="#406db1"/><stop offset="1" stop-color="#274e9b"/></linearGradient><linearGradient id="linear-gradient-2" x1="344.17" y1="40.96" x2="344.17" y2="187.38" xlink:href="#linear-gradient"/><linearGradient id="linear-gradient-3" x1="449.69" y1="40.96" x2="449.69" y2="187.38" xlink:href="#linear-gradient"/><linearGradient id="linear-gradient-4" x1="555.4" y1="40.96" x2="555.4" y2="187.38" xlink:href="#linear-gradient"/><linearGradient id="linear-gradient-5" x1="608.01" y1="40.75" x2="608.01" y2="54.02" xlink:href="#linear-gradient"/></defs><g id="Layer_2" data-name="Layer 2"><g id="Layer_1-2" data-name="Layer 1"><path class="cls-1" d="M87.15,11.58A75.56,75.56,0,1,1,11.59,87.15,75.56,75.56,0,0,1,87.15,11.58m0-4a79.62,79.62,0,1,0,79.62,79.62A79.7,79.7,0,0,0,87.15,7.53Z"/><path class="cls-2" d="M87.15,1.62A85.53,85.53,0,1,1,1.62,87.15,85.52,85.52,0,0,1,87.15,1.62m0-1.62A87.15,87.15,0,0,0,25.52,148.77,87.15,87.15,0,0,0,148.77,25.52,86.6,86.6,0,0,0,87.15,0Z"/><path class="cls-3" d="M87.15,17.21a69.94,69.94,0,1,0,69.93,69.94A70,70,0,0,0,87.15,17.21Zm-12.91,84.4,9.23,9.8H64.11a.76.76,0,0,1-.76-.76V48.43a.76.76,0,0,1,.76-.76H100.4a.76.76,0,0,1,.76.76v52.32L87.37,86.69c-.14-.15-3.32-3.5-7.72-3.56h-.11a9.87,9.87,0,0,0-7.15,3.31C67.44,91.49,71.43,98.56,74.24,101.61Zm11.33,13.86c.21,4.56,1.77,13.58,10.18,19.27a1.31,1.31,0,0,0,.28.2l.11.08v0a2,2,0,0,0,.9.22,2,2,0,0,0,2-2,2,2,0,0,0-.75-1.57h0l-.08-.06-.15-.1,0,0c-6.93-4.65-8.27-12.13-8.47-16a15.91,15.91,0,0,1,0-2.43l.08-.91-.68-.72L77.22,98.84c-.06-.06-5.42-6-1.93-9.56a5.92,5.92,0,0,1,4.25-2.09h0a7.72,7.72,0,0,1,4.85,2.31l16.73,17,4.06,4.14.86.87a0,0,0,0,0,0,0l.16.17,0,0a2,2,0,0,0,3.29-1.6,2.06,2.06,0,0,0-.41-1.22h0l0,0a2.65,2.65,0,0,0-.29-.29l-3.61-3.68v-32l9.64,8.78.16.13c.19.15,4.86,3.72,4.86,11.29,0,4.39-.06,28.8-.11,48.44a63.15,63.15,0,0,1-29,8.92V138.06l-1.12-.56c-8.35-4.17-10.11-18.21-10.44-22Zm38.27,23.44c0-18.86.1-41.6.1-45.79a18.38,18.38,0,0,0-6.42-14.49l-12.3-11.2v-19a4.82,4.82,0,0,0-4.82-4.82H64.11a4.82,4.82,0,0,0-4.82,4.82v62.22a4.82,4.82,0,0,0,4.82,4.82H75.17c.27,3.74,2,19.18,11.58,25v10.07a63.41,63.41,0,1,1,37.09-11.67Z"/><path class="cls-4" d="M185.94,108.94V22.59a11.86,11.86,0,0,1,23.71,0V63.48a51.41,51.41,0,0,1,29.14-9.14c29.37,0,52.85,24.8,52.85,54.6,0,29.36-23.48,54.16-52.85,54.16a53,53,0,0,1-29.58-9.36,11.76,11.76,0,0,1-23.27-2.39Zm23.71,0a30.6,30.6,0,0,0,8.7,21.53,27.79,27.79,0,0,0,20.44,8.92,28.2,28.2,0,0,0,20.45-8.92,31.54,31.54,0,0,0,0-43.5,28.16,28.16,0,0,0-20.45-8.92A27.76,27.76,0,0,0,218.35,87,30.85,30.85,0,0,0,209.65,108.94Z"/><path class="cls-5" d="M291.42,108.72c.22-29.58,23.28-54.38,53.08-54.38,28.28,0,50.68,21.1,52.42,50.46v1.09a6,6,0,0,1-.22,2c-.65,5.22-5.22,8.7-11.31,8.7H316.22c1.09,5,3.48,10.66,7.4,14.36,4.56,5.21,13.26,9.13,20.88,9.79,7.83.65,17.18-1.31,22.62-5.45,4.57-4.78,13.48-4.13,16.31-.65,2.83,3.05,5,9.57,0,14.14-10.65,9.79-23.49,14.36-38.93,14.36C314.7,162.88,291.64,138.3,291.42,108.72Zm23.71-10.66h61.56c-2.18-8.7-13.27-21.53-32.19-23.06C326,75.87,316.87,89.14,315.13,98.06Z"/><path class="cls-6" d="M397,108.72c.21-29.58,23.27-54.38,53.07-54.38,28.28,0,50.68,21.1,52.42,50.46v1.09a6,6,0,0,1-.22,2c-.65,5.22-5.22,8.7-11.31,8.7H421.75c1.08,5,3.47,10.66,7.39,14.36,4.57,5.21,13.27,9.13,20.88,9.79,7.83.65,17.19-1.31,22.62-5.45,4.57-4.78,13.49-4.13,16.31-.65,2.83,3.05,5,9.57,0,14.14C478.3,158.53,465.46,163.1,450,163.1,420.22,162.88,397.16,138.3,397,108.72Zm23.71-10.66h61.55C480,89.36,468.94,76.53,450,75,431.53,75.87,422.4,89.14,420.66,98.06Z"/><path class="cls-7" d="M502.55,192.24V65.87a11.61,11.61,0,0,1,11.53-11.53c6.09,0,11.09,4.14,12,8.92a55.2,55.2,0,0,1,29.58-8.92c28.93,0,52.64,24.8,52.64,54.6s-23.71,53.94-52.64,53.94c-10.88,0-21.31-3.26-29.15-8.92v38.28c0,6.09-5.43,11.75-12.39,11.75C507.77,204,502.55,198.33,502.55,192.24Zm23.92-83.3c0,8.48,2.83,16.75,8.49,21.75a26.9,26.9,0,0,0,20.66,9.13,27.82,27.82,0,0,0,20.45-9.13c5-5,8.48-13.27,8.48-21.75a33.57,33.57,0,0,0-8.48-22,28.43,28.43,0,0,0-20.45-8.92A27.47,27.47,0,0,0,535,87C529.3,92.62,526.47,100.46,526.47,108.94Z"/><path class="cls-8" d="M605,42.88h-3V53a1,1,0,0,1-1,1,1.08,1.08,0,0,1-1.07-1V42.88h-3a1.08,1.08,0,0,1-1-1.11,1,1,0,0,1,1-1H605a1,1,0,0,1,1,1A1.11,1.11,0,0,1,605,42.88Zm15.09-1.11V53a1.08,1.08,0,0,1-1.07,1A1,1,0,0,1,618,53V45l-2.71,3.81a1.11,1.11,0,0,1-1.78,0L610.76,45v8a1,1,0,0,1-1,1,1.07,1.07,0,0,1-1-1V41.77a1,1,0,0,1,1-1h.09a1.25,1.25,0,0,1,.84.44l3.73,5.24,3.73-5.24a1.24,1.24,0,0,1,.89-.44h0A1.07,1.07,0,0,1,620.13,41.77Z"/></g></g></svg>